<?xml version="1.0" encoding="utf-8"?>
<!-- Generator: Adobe Illustrator 18.1.1, SVG Export Plug-In . SVG Version: 6.00 Build 0)  -->
<!DOCTYPE svg PUBLIC "-//W3C//DTD SVG 1.1//EN" "http://www.w3.org/Graphics/SVG/1.1/DTD/svg11.dtd">
<svg version="1.1" xmlns="http://www.w3.org/2000/svg" xmlns:xlink="http://www.w3.org/1999/xlink" x="0px" y="0px"
	 viewBox="0 0 540 240" enable-background="new 0 0 540 240" xml:space="preserve">
<g id="Isolation_Mode">
	<g>
		<path fill="#CC0000" d="M224.6,60l-60-16.1l16.1-27.8l-60,16.1V0L76.8,43.9L60.7,16.1l-16.1,60L16.8,60l16.1,60H0.7l43.9,43.9
			L16.8,180l60,16.1l-16.1,27.8l60-16.1V240l43.9-43.9l16.1,27.8l16.1-60l27.8,16.1l-16.1-60h32.2l-43.9-43.9L224.6,60z M156.6,57.9
			l5,38.5l21.2-12.3L167.9,120h24.5l-30.9,23.6l21.2,12.3l-38.5,5l12.3,21.2l-35.8-14.9v24.5l-23.6-30.9l-12.3,21.2l-5-38.5
			l-21.2,12.3L73.6,120H49l30.9-23.6L58.6,84.2l38.5-5L84.9,57.9l35.8,14.9V48.3l23.6,30.9L156.6,57.9z"/>
		<g>
			<path fill="#414042" d="M380.1,105h-15.5v-9.8h42.2v9.8h-15.5v44.6h-11.2V105z"/>
			<path fill="#414042" d="M431,95.1h37.1v9.8h-25.9v12.5h21.9v9.6h-21.9v12.6h25.9v9.8H431V95.1z"/>
			<path fill="#414042" d="M510.7,124.2c-2.7-2.6-6.5-7.4-6.5-7.4s0.8,6,0.8,9.9v22.8h-10.5V94.7h1.1l27.4,25.8
				c2.6,2.5,6.4,7.4,6.4,7.4s-0.7-6.2-0.7-9.9V95.1h10.5V150h-1.1L510.7,124.2z"/>
			<path fill="#414042" d="M340.2,149.5h11.8L327,94.7h-1l-23.9,54.9H313l4.3-10.4h18.5L340.2,149.5z M321.1,129.7l2.1-5.2
				c1.5-3.8,3.1-9.4,3.2-9.7c0.2,0.6,1.8,6.1,3.3,9.7l2.2,5.2H321.1z"/>
		</g>
	</g>
</g>
</svg>
